{
  "accessors": [
    {
      "bufferView": 1,
      "componentType": 5126,
      "count": 65532,
      "max": [
        221.23916625976562,
        206.86875915527344,
        207.53817749023438
      ],
      "min": [
        -145.85848999023438,
        -266.02749633789062,
        -191.30377197265625
      ],
      "type": "VEC3"
    },
    {
      "bufferView": 1,
      "byteOffset": 786384,
      "componentType": 5126,
      "count": 65532,
      "max": [
        0.99996387958526611,
        0.99999958276748657,
        0.99997246265411377
      ],
      "min": [
        -0.99997872114181519,
        -0.99991041421890259,
        -0.99995023012161255
      ],
      "type": "VEC3"
    },
    {
      "bufferView": 0,
      "componentType": 5125,
      "count": 331716,
      "max": [
        65531
      ],
      "min": [
        0
      ],
      "type": "SCALAR"
    },
    {
      "bufferView": 1,
      "byteOffset": 1572768,
      "componentType": 5126,
      "count": 65532,
      "max": [
        221.8411865234375,
        208.01670837402344,
        193.312255859375
      ],
      "min": [
        -146.2969970703125,
        -229.2623291015625,
        -192.09919738769531
      ],
      "type": "VEC3"
    },
    {
      "bufferView": 1,
      "byteOffset": 2359152,
      "componentType": 5126,
      "count": 65532,
      "max": [
        0.99996280670166016,
        0.99999344348907471,
        0.99999243021011353
      ],
      "min": [
        -0.99999690055847168,
        -0.99998104572296143,
        -0.99981087446212769
      ],
      "type": "VEC3"
    },
    {
      "bufferView": 0,
      "byteOffset": 1326864,
      "componentType": 5125,
      "count": 339906,
      "max": [
        65531
      ],
      "min": [
        0
      ],
      "type": "SCALAR"
    },
    {
      "bufferView": 1,
      "byteOffset": 3145536,
      "componentType": 5126,
      "count": 65532,
      "max": [
        221.69351196289062,
        207.68052673339844,
        215.46025085449219
      ],
      "min": [
        -146.11471557617188,
        -229.23617553710938,
        -191.536865234375
      ],
      "type": "VEC3"
    },
    {
      "bufferView": 1,
      "byteOffset": 3931920,
      "componentType": 5126,
      "count": 65532,
      "max": [
        0.99998098611831665,
        0.99997347593307495,
        0.99998795986175537
      ],
      "min": [
        -0.99998992681503296,
        -0.99998104572296143,
        -0.9999048113822937
      ],
      "type": "VEC3"
    },
    {
      "bufferView": 0,
      "byteOffset": 2686488,
      "componentType": 5125,
      "count": 287877,
      "max": [
        65531
      ],
      "min": [
        0
      ],
      "type": "SCALAR"
    },
    {
      "bufferView": 1,
      "byteOffset": 4718304,
      "componentType": 5126,
      "count": 65532,
      "max": [
        213.48326110839844,
        200.12623596191406,
        211.86833190917969
      ],
      "min": [
        -144.78619384765625,
        -238.10404968261719,
        -185.04689025878906
      ],
      "type": "VEC3"
    },
    {
      "bufferView": 1,
      "byteOffset": 5504688,
      "componentType": 5126,
      "count": 65532,
      "max": [
        0.99996012449264526,
        0.99999088048934937,
        0.99995428323745728
      ],
      "min": [
        -0.99996864795684814,
        -0.99999254941940308,
        -0.99995553493499756
      ],
      "type": "VEC3"
    },
    {
      "bufferView": 0,
      "byteOffset": 3837996,
      "componentType": 5125,
      "count": 316539,
      "max": [
        65531
      ],
      "min": [
        0
      ],
      "type": "SCALAR"
    },
    {
      "bufferView": 1,
      "byteOffset": 6291072,
      "componentType": 5126,
      "count": 65532,
      "max": [
        211.63520812988281,
        206.49668884277344,
        214.47515869140625
      ],
      "min": [
        -148.17083740234375,
        -233.15614318847656,
        -191.10858154296875
      ],
      "type": "VEC3"
    },
    {
      "bufferView": 1,
      "byteOffset": 7077456,
      "componentType": 5126,
      "count": 65532,
      "max": [
        0.99993759393692017,
        0.99997478723526001,
        0.99999809265136719
      ],
      "min": [
        -0.99999880790710449,
        -0.99993586540222168,
        -0.99994748830795288
      ],
      "type": "VEC3"
    },
    {
      "bufferView": 0,
      "byteOffset": 5104152,
      "componentType": 5125,
      "count": 309402,
      "max": [
        65531
      ],
      "min": [
        0
      ],
      "type": "SCALAR"
    },
    {
      "bufferView": 1,
      "byteOffset": 7863840,
      "componentType": 5126,
      "count": 65532,
      "max": [
        209.84706115722656,
        213.91609191894531,
        173.94338989257812
      ],
      "min": [
        -140.10365295410156,
        -263.33291625976562,
        -191.17756652832031
      ],
      "type": "VEC3"
    },
    {
      "bufferView": 1,
      "byteOffset": 8650224,
      "componentType": 5126,
      "count": 65532,
      "max": [
        0.99998831748962402,
        0.99995994567871094,
        0.99983632564544678
      ],
      "min": [
        -0.99998003244400024,
        -0.99999535083770752,
        -0.99998682737350464
      ],
      "type": "VEC3"
    },
    {
      "bufferView": 0,
      "byteOffset": 6341760,
      "componentType": 5125,
      "count": 331191,
      "max": [
        65531
      ],
      "min": [
        0
      ],
      "type": "SCALAR"
    },
    {
      "bufferView": 1,
      "byteOffset": 9436608,
      "componentType": 5126,
      "count": 65532,
      "max": [
        208.38442993164062,
        230.59503173828125,
        205.92849731445312
      ],
      "min": [
        -120.44178009033203,
        -234.09657287597656,
        -160.39125061035156
      ],
      "type": "VEC3"
    },
    {
      "bufferView": 1,
      "byteOffset": 10222992,
      "componentType": 5126,
      "count": 65532,
      "max": [
        0.99999028444290161,
        0.9999927282333374,
        0.99983066320419312
      ],
      "min": [
        -0.99997633695602417,
        -0.99999040365219116,
        -0.99995553493499756
      ],
      "type": "VEC3"
    },
    {
      "bufferView": 0,
      "byteOffset": 7666524,
      "componentType": 5125,
      "count": 329553,
      "max": [
        65531
      ],
      "min": [
        0
      ],
      "type": "SCALAR"
    },
    {
      "bufferView": 1,
      "byteOffset": 11009376,
      "componentType": 5126,
      "count": 65532,
      "max": [
        212.09092712402344,
        230.31697082519531,
        201.51422119140625
      ],
      "min": [
        -147.60968017578125,
        -233.06907653808594,
        -169.97425842285156
      ],
      "type": "VEC3"
    },
    {
      "bufferView": 1,
      "byteOffset": 11795760,
      "componentType": 5126,
      "count": 65532,
      "max": [
        0.99995523691177368,
        0.99998146295547485,
        0.9998931884765625
      ],
      "min": [
        -0.99996846914291382,
        -0.99996626377105713,
        -0.99995946884155273
      ],
      "type": "VEC3"
    },
    {
      "bufferView": 0,
      "byteOffset": 8984736,
      "componentType": 5125,
      "count": 311310,
      "max": [
        65531
      ],
      "min": [
        0
      ],
      "type": "SCALAR"
    },
    {
      "bufferView": 1,
      "byteOffset": 12582144,
      "componentType": 5126,
      "count": 65532,
      "max": [
        213.47100830078125,
        230.39799499511719,
        214.50392150878906
      ],
      "min": [
        -147.96908569335938,
        -232.97627258300781,
        -168.61042785644531
      ],
      "type": "VEC3"
    },
    {
      "bufferView": 1,
      "byteOffset": 13368528,
      "componentType": 5126,
      "count": 65532,
      "max": [
        0.99997925758361816,
        0.99999958276748657,
        0.99999195337295532
      ],
      "min": [
        -0.99997401237487793,
        -0.99999475479125977,
        -0.99991512298583984
      ],
      "type": "VEC3"
    },
    {
      "bufferView": 0,
      "byteOffset": 10229976,
      "componentType": 5125,
      "count": 222756,
      "max": [
        65531
      ],
      "min": [
        0
      ],
      "type": "SCALAR"
    },
    {
      "bufferView": 1,
      "byteOffset": 14154912,
      "componentType": 5126,
      "count": 65532,
      "max": [
        209.55802917480469,
        230.10540771484375,
        201.57760620117188
      ],
      "min": [
        -146.20382690429688,
        -266.08349609375,
        -164.12174987792969
      ],
      "type": "VEC3"
    },
    {
      "bufferView": 1,
      "byteOffset": 14941296,
      "componentType": 5126,
      "count": 65532,
      "max": [
        0.99976044893264771,
        0.99993890523910522,
        0.99996203184127808
      ],
      "min": [
        -0.99999284744262695,
        -0.99999934434890747,
        -0.9999815821647644
      ],
      "type": "VEC3"
    },
    {
      "bufferView": 0,
      "byteOffset": 11121000,
      "componentType": 5125,
      "count": 330240,
      "max": [
        65531
      ],
      "min": [
        0
      ],
      "type": "SCALAR"
    },
    {
      "bufferView": 1,
      "byteOffset": 15727680,
      "componentType": 5126,
      "count": 65532,
      "max": [
        203.26884460449219,
        222.0010986328125,
        186.29328918457031
      ],
      "min": [
        -151.68089294433594,
        -264.7431640625,
        -122.62916564941406
      ],
      "type": "VEC3"
    },
    {
      "bufferView": 1,
      "byteOffset": 16514064,
      "componentType": 5126,
      "count": 65532,
      "max": [
        0.99997818470001221,
        0.9999651312828064,
        0.99997085332870483
      ],
      "min": [
        -0.99998366832733154,
        -0.99999886751174927,
        -0.99981141090393066
      ],
      "type": "VEC3"
    },
    {
      "bufferView": 0,
      "byteOffset": 12441960,
      "componentType": 5125,
      "count": 329628,
      "max": [
        65531
      ],
      "min": [
        0
      ],
      "type": "SCALAR"
    },
    {
      "bufferView": 1,
      "byteOffset": 17300448,
      "componentType": 5126,
      "count": 65532,
      "max": [
        211.46533203125,
        228.39938354492188,
        210.34848022460938
      ],
      "min": [
        -151.6724853515625,
        -265.56292724609375,
        -121.21205902099609
      ],
      "type": "VEC3"
    },
    {
      "bufferView": 1,
      "byteOffset": 18086832,
      "componentType": 5126,
      "count": 65532,
      "max": [
        0.99998617172241211,
        0.99990260601043701,
        0.99995845556259155
      ],
      "min": [
        -0.99996417760848999,
        -0.99999409914016724,
        -0.99979454278945923
      ],
      "type": "VEC3"
    },
    {
      "bufferView": 0,
      "byteOffset": 13760472,
      "componentType": 5125,
      "count": 319287,
      "max": [
        65531
      ],
      "min": [
        0
      ],
      "type": "SCALAR"
    },
    {
      "bufferView": 1,
      "byteOffset": 18873216,
      "componentType": 5126,
      "count": 65532,
      "max": [
        212.17918395996094,
        230.03948974609375,
        214.22596740722656
      ],
      "min": [
        -151.42604064941406,
        -266.81863403320312,
        -120.18772888183594
      ],
      "type": "VEC3"
    },
    {
      "bufferView": 1,
      "byteOffset": 19659600,
      "componentType": 5126,
      "count": 65532,
      "max": [
        0.99998468160629272,
        0.99999117851257324,
        0.99995505809783936
      ],
      "min": [
        -0.99999392032623291,
        -0.99999934434890747,
        -0.99997919797897339
      ],
      "type": "VEC3"
    },
    {
      "bufferView": 0,
      "byteOffset": 15037620,
      "componentType": 5125,
      "count": 269439,
      "max": [
        65531
      ],
      "min": [
        0
      ],
      "type": "SCALAR"
    },
    {
      "bufferView": 1,
      "byteOffset": 20445984,
      "componentType": 5126,
      "count": 65532,
      "max": [
        208.24063110351562,
        230.26699829101562,
        196.54890441894531
      ],
      "min": [
        -149.58175659179688,
        -266.81863403320312,
        -118.37501525878906
      ],
      "type": "VEC3"
    },
    {
      "bufferView": 1,
      "byteOffset": 21232368,
      "componentType": 5126,
      "count": 65532,
      "max": [
        0.99996387958526611,
        0.99994403123855591,
        0.99991405010223389
      ],
      "min": [
        -0.99999642372131348,
        -0.99999761581420898,
        -0.99980473518371582
      ],
      "type": "VEC3"
    },
    {
      "bufferView": 0,
      "byteOffset": 16115376,
      "componentType": 5125,
      "count": 288183,
      "max": [
        65531
      ],
      "min": [
        0
      ],
      "type": "SCALAR"
    },
    {
      "bufferView": 1,
      "byteOffset": 22018752,
      "componentType": 5126,
      "count": 63887,
      "max": [
        210.79823303222656,
        228.90481567382812,
        196.596923828125
      ],
      "min": [
        -151.68089294433594,
        -266.81625366210938,
        -122.93759918212891
      ],
      "type": "VEC3"
    },
    {
      "bufferView": 1,
      "byteOffset": 22785396,
      "componentType": 5126,
      "count": 63887,
      "max": [
        0.99998879432678223,
        0.99999117851257324,
        0.99999809265136719
      ],
      "min": [
        -0.99999392032623291,
        -0.99998849630355835,
        -0.99995023012161255
      ],
      "type": "VEC3"
    },
    {
      "bufferView": 0,
      "byteOffset": 17268108,
      "componentType": 5125,
      "count": 182973,
      "max": [
        63886
      ],
      "min": [
        0
      ],
      "type": "SCALAR"
    }
  ],
  "asset": {
    "generator": "Sketchfab (OSG glTF plugin)",
    "version": "2.0"
  },
  "bufferViews": [
    {
      "buffer": 0,
      "byteLength": 18000000,
      "byteOffset": 0,
      "name": "floatBufferViews",
      "target": 34963
    },
    {
      "buffer": 0,
      "byteLength": 23552040,
      "byteOffset": 18000000,
      "byteStride": 12,
      "name": "floatBufferViews",
      "target": 34962
    }
  ],
  "buffers": [
    {
      "byteLength": 41552040,
      "uri": "scene.bin"
    }
  ],
  "extensionsRequired": [
    "KHR_materials_pbrSpecularGlossiness"
  ],
  "extensionsUsed": [
    "KHR_materials_pbrSpecularGlossiness"
  ],
  "materials": [
    {
      "doubleSided": true,
      "emissiveFactor": [
        0,
        0,
        0
      ],
      "extensions": {
        "KHR_materials_pbrSpecularGlossiness": {
          "diffuseFactor": [
            0.5,
            0.5,
            0.5,
            1
          ],
          "glossinessFactor": 0,
          "specularFactor": [
            0,
            0,
            0
          ]
        }
      },
      "name": "Scene - Root",
      "occlusionFactor": 1
    }
  ],
  "meshes": [
    {
      "primitives": [
        {
          "attributes": {
            "NORMAL": 1,
            "POSITION": 0
          },
          "indices": 2,
          "material": 0,
          "mode": 4
        }
      ]
    },
    {
      "primitives": [
        {
          "attributes": {
            "NORMAL": 4,
            "POSITION": 3
          },
          "indices": 5,
          "material": 0,
          "mode": 4
        }
      ]
    },
    {
      "primitives": [
        {
          "attributes": {
            "NORMAL": 7,
            "POSITION": 6
          },
          "indices": 8,
          "material": 0,
          "mode": 4
        }
      ]
    },
    {
      "primitives": [
        {
          "attributes": {
            "NORMAL": 10,
            "POSITION": 9
          },
          "indices": 11,
          "material": 0,
          "mode": 4
        }
      ]
    },
    {
      "primitives": [
        {
          "attributes": {
            "NORMAL": 13,
            "POSITION": 12
          },
          "indices": 14,
          "material": 0,
          "mode": 4
        }
      ]
    },
    {
      "primitives": [
        {
          "attributes": {
            "NORMAL": 16,
            "POSITION": 15
          },
          "indices": 17,
          "material": 0,
          "mode": 4
        }
      ]
    },
    {
      "primitives": [
        {
          "attributes": {
            "NORMAL": 19,
            "POSITION": 18
          },
          "indices": 20,
          "material": 0,
          "mode": 4
        }
      ]
    },
    {
      "primitives": [
        {
          "attributes": {
            "NORMAL": 22,
            "POSITION": 21
          },
          "indices": 23,
          "material": 0,
          "mode": 4
        }
      ]
    },
    {
      "primitives": [
        {
          "attributes": {
            "NORMAL": 25,
            "POSITION": 24
          },
          "indices": 26,
          "material": 0,
          "mode": 4
        }
      ]
    },
    {
      "primitives": [
        {
          "attributes": {
            "NORMAL": 28,
            "POSITION": 27
          },
          "indices": 29,
          "material": 0,
          "mode": 4
        }
      ]
    },
    {
      "primitives": [
        {
          "attributes": {
            "NORMAL": 31,
            "POSITION": 30
          },
          "indices": 32,
          "material": 0,
          "mode": 4
        }
      ]
    },
    {
      "primitives": [
        {
          "attributes": {
            "NORMAL": 34,
            "POSITION": 33
          },
          "indices": 35,
          "material": 0,
          "mode": 4
        }
      ]
    },
    {
      "primitives": [
        {
          "attributes": {
            "NORMAL": 37,
            "POSITION": 36
          },
          "indices": 38,
          "material": 0,
          "mode": 4
        }
      ]
    },
    {
      "primitives": [
        {
          "attributes": {
            "NORMAL": 40,
            "POSITION": 39
          },
          "indices": 41,
          "material": 0,
          "mode": 4
        }
      ]
    },
    {
      "primitives": [
        {
          "attributes": {
            "NORMAL": 43,
            "POSITION": 42
          },
          "indices": 44,
          "material": 0,
          "mode": 4
        }
      ]
    }
  ],
  "nodes": [
    {
      "children": [
        1
      ],
      "name": "RootNode (gltf orientation matrix)",
      "rotation": [
        -0.70710678118654746,
        -0,
        -0,
        0.70710678118654757
      ]
    },
    {
      "children": [
        2
      ],
      "matrix": [
        0.45287594199180603,
        0.0041264505125582218,
        0.8915640115737915,
        0,
        -0.23029336333274841,
        0.96659582853317261,
        0.11250534653663635,
        0,
        -0.86131781339645386,
        -0.25627222657203674,
        0.43869829177856445,
        0,
        25.384916305541992,
        2.3729336261749268,
        -22.19059944152832,
        1
      ],
      "name": "RootNode (model correction matrix)"
    },
    {
      "children": [
        18
      ],
      "name": "Engine.stl.cleaner"
    },
    {
      "mesh": 0,
      "name": ""
    },
    {
      "mesh": 1,
      "name": ""
    },
    {
      "mesh": 2,
      "name": ""
    },
    {
      "mesh": 3,
      "name": ""
    },
    {
      "mesh": 4,
      "name": ""
    },
    {
      "mesh": 5,
      "name": ""
    },
    {
      "mesh": 6,
      "name": ""
    },
    {
      "mesh": 7,
      "name": ""
    },
    {
      "mesh": 8,
      "name": ""
    },
    {
      "mesh": 9,
      "name": ""
    },
    {
      "mesh": 10,
      "name": ""
    },
    {
      "mesh": 11,
      "name": ""
    },
    {
      "mesh": 12,
      "name": ""
    },
    {
      "mesh": 13,
      "name": ""
    },
    {
      "mesh": 14,
      "name": ""
    },
    {
      "children": [
        3,
        4,
        5,
        6,
        7,
        8,
        9,
        10,
        11,
        12,
        13,
        14,
        15,
        16,
        17
      ],
      "name": "Geode"
    }
  ],
  "scene": 0,
  "scenes": [
    {
      "name": "OSG_Scene",
      "nodes": [
        0
      ]
    }
  ]
}

